<?xml version="1.0" encoding="utf-8"?>
<!-- Generator: Adobe Illustrator 25.0.0, SVG Export Plug-In . SVG Version: 6.00 Build 0)  -->
<svg version="1.2" baseProfile="tiny" id="logo_1" xmlns="http://www.w3.org/2000/svg" xmlns:xlink="http://www.w3.org/1999/xlink"
	 x="0px" y="0px" viewBox="0 0 800 800" overflow="visible" xml:space="preserve">
<rect x="323" y="254" fill="#001A38" width="38" height="125"/>
<rect x="407" y="254" fill="#001A38" width="38" height="125"/>
<rect x="338" y="268" fill="#FFFFFF" width="8" height="96"/>
<rect x="422" y="268" fill="#FFFFFF" width="8" height="96"/>
<polygon fill="#FFFFFF" points="337.96,343.42 337.96,331.42 385,306.5 430,330.58 430,342.58 385,318.74 "/>
<polygon fill="#001A38" points="323,321 323,309 385,276 445,308 445,320 385,288 "/>
<polygon fill="#FFFFFF" points="323,333 323,321 385,288 445,320 445,332 385,301 "/>
<polygon fill="#001A38" points="323,344 323,332 385,299 445,331 445,343 385,311.24 "/>
<rect x="372" y="329.04" fill="#F38920" width="9.92" height="9.92"/>
<rect x="386.96" y="329.04" fill="#F38920" width="9.92" height="9.92"/>
<rect x="372" y="343.04" fill="#F38920" width="9.92" height="9.92"/>
<rect x="386.96" y="343.04" fill="#F38920" width="9.92" height="9.92"/>
<path fill="#F38920" d="M214.67,423.67c0,0,53.25-31.67,172.29-31.67S563,428.67,563,428.67S415.67,388,214.67,423.67z"/>
<g>
	<path fill="#F38920" d="M279.55,450.33h-10.7v11.38l0.1,2.21c0,1.06,0.18,1.77,0.55,2.14c0.37,0.37,1.06,0.62,2.09,0.74l1.73,0.14
		v0.77H251.9v-0.77l2.4-0.19c0.93-0.13,1.58-0.4,1.94-0.82c0.37-0.42,0.6-1.12,0.7-2.11l0.1-2.21v-22.8l-0.1-2.21
		c-0.1-1.02-0.31-1.74-0.65-2.14c-0.34-0.4-1-0.66-1.99-0.79l-2.5-0.19v-0.77h21.5v0.77l-1.73,0.14c-1.02,0.1-1.72,0.34-2.09,0.74
		c-0.37,0.4-0.55,1.11-0.55,2.14l-0.1,2.21v10.56h10.7v-10.56l-0.1-2.21c-0.1-1.06-0.31-1.77-0.65-2.14c-0.34-0.37-1-0.62-1.99-0.74
		l-1.73-0.14v-0.77h21.5v0.77l-2.5,0.19c-0.93,0.13-1.58,0.4-1.94,0.82c-0.37,0.42-0.6,1.12-0.7,2.11l-0.1,2.21v22.8l0.1,2.21
		c0.1,1.02,0.31,1.74,0.65,2.14c0.34,0.4,1,0.66,1.99,0.79l2.4,0.19v0.77h-21.41v-0.77l1.73-0.14c1.02-0.13,1.7-0.37,2.02-0.72
		c0.32-0.35,0.53-1.07,0.62-2.16l0.1-2.21V450.33z"/>
	<path fill="#F38920" d="M314.3,467.71h-15.6v-0.77l1.15-0.05c0.93-0.1,1.49-0.32,1.68-0.67c0.19-0.35,0.29-1.12,0.29-2.3l0.05-2.21
		v-11.47l-0.05-1.97c-0.06-0.77-0.16-1.34-0.29-1.73c-0.13-0.38-0.7-0.62-1.73-0.72l-1.3-0.1v-0.77h12.62v16.75l0.05,2.21
		c0,1.15,0.1,1.91,0.29,2.28c0.19,0.37,0.75,0.6,1.68,0.7l1.15,0.05V467.71z M301.72,436.94c0-1.25,0.46-2.31,1.37-3.19
		c0.92-0.88,2.02-1.32,3.31-1.32c1.32,0,2.44,0.42,3.35,1.27s1.38,1.93,1.38,3.24c0,1.28-0.46,2.36-1.38,3.24
		c-0.92,0.88-2.03,1.32-3.35,1.32c-1.29,0-2.39-0.44-3.31-1.32C302.18,439.3,301.72,438.22,301.72,436.94z"/>
	<path fill="#F38920" d="M333.45,447.12c0.35-0.8,0.9-1.44,1.63-1.92c0.74-0.48,1.63-0.72,2.69-0.72c1.12,0,2.02,0.29,2.69,0.86
		c0.67,0.58,1.01,1.36,1.01,2.35c0,0.77-0.25,1.41-0.76,1.92c-0.51,0.51-1.18,0.77-2,0.77c-0.76,0-1.41-0.22-1.93-0.65
		c-0.53-0.43-0.79-1.06-0.79-1.9c0-0.45,0.15-0.87,0.44-1.27c0.29-0.4,0.44-0.7,0.44-0.89c0-0.13-0.13-0.19-0.38-0.19
		c-0.41,0-0.87,0.17-1.38,0.5c-0.51,0.34-0.92,0.84-1.23,1.51c0.58,0.61,1.03,1.37,1.35,2.28c0.32,0.91,0.48,1.86,0.48,2.86
		c0,2.43-0.93,4.39-2.79,5.88c-1.86,1.49-4.04,2.23-6.55,2.23c-1.54,0-3.05-0.29-4.52-0.87c-0.67-0.06-1.32,0.05-1.93,0.33
		s-0.91,0.73-0.91,1.36c0,0.45,0.24,0.78,0.72,1.01c0.45,0.26,0.96,0.38,1.54,0.38h10.22c2.62,0,4.72,0.75,6.29,2.24
		c1.57,1.5,2.35,3.37,2.35,5.63c0,2.8-1.32,4.86-3.96,6.18c-2.64,1.32-5.74,1.98-9.29,1.98c-2.91,0-5.46-0.36-7.66-1.06
		c-2.19-0.71-3.29-1.95-3.29-3.72c0-0.84,0.33-1.51,0.98-2c0.66-0.5,1.48-0.85,2.47-1.04c-1.28-0.73-2.28-1.55-3-2.46
		c-0.72-0.91-1.08-2.02-1.08-3.32c0-1.59,0.53-2.95,1.58-4.06c1.06-1.12,2.32-1.78,3.79-2.01c-1.18-0.77-2.1-1.7-2.76-2.81
		c-0.66-1.1-0.98-2.38-0.98-3.82c0-2.46,0.92-4.45,2.76-5.95c1.84-1.5,4.06-2.26,6.65-2.26
		C329.26,444.48,331.63,445.36,333.45,447.12z M320.3,471.6c-0.9,0.13-1.54,0.39-1.94,0.79c-0.4,0.4-0.6,0.98-0.6,1.75
		c0,1.28,0.94,2.25,2.81,2.9c1.87,0.66,4.02,0.98,6.46,0.98c3.04,0,5.49-0.34,7.34-1.01c1.86-0.67,2.78-1.74,2.78-3.22
		c0-0.9-0.42-1.49-1.25-1.78c-0.83-0.29-2.02-0.43-3.55-0.43H320.3z M328.6,452.64l-0.14-3.5c0-1.18-0.16-2.13-0.48-2.83
		c-0.32-0.7-0.88-1.06-1.68-1.06c-0.74,0-1.27,0.36-1.61,1.08s-0.5,1.66-0.5,2.81l-0.14,3.5l0.14,3.5c0,1.12,0.18,2.04,0.53,2.76
		c0.35,0.72,0.9,1.08,1.63,1.08c0.74,0,1.27-0.35,1.61-1.06c0.34-0.7,0.5-1.63,0.5-2.78L328.6,452.64z"/>
	<path fill="#F38920" d="M353.03,448.51c0.6-1.28,1.45-2.27,2.53-2.98c1.08-0.7,2.62-1.06,4.63-1.06c2.22,0,4.18,0.6,5.89,1.8
		c1.71,1.2,2.56,2.74,2.56,4.63v10.8l0.05,2.21c0,1.15,0.1,1.91,0.29,2.28c0.19,0.37,0.75,0.6,1.68,0.7l1.06,0.05v0.77h-14.86v-0.77
		l0.62-0.05c0.86,0,1.38-0.19,1.57-0.58c0.19-0.38,0.29-1.18,0.29-2.4l0.05-2.21v-9.79l-0.05-1.97c0-1.34-0.22-2.3-0.67-2.88
		c-0.45-0.58-1.11-0.86-2-0.86c-1.08,0-1.85,0.35-2.31,1.06c-0.46,0.7-0.83,1.42-1.12,2.16v12.29l0.05,2.21
		c0,1.25,0.09,2.06,0.26,2.42c0.17,0.37,0.71,0.55,1.6,0.55l0.62,0.05v0.77h-14.91v-0.77l1.1-0.05c0.93-0.1,1.49-0.32,1.68-0.67
		c0.19-0.35,0.29-1.12,0.29-2.3l0.05-2.21V438l-0.05-1.97c0-0.86-0.14-1.46-0.41-1.8c-0.27-0.34-0.86-0.55-1.75-0.65l-1.82-0.1
		v-0.77h13.3v11.38c0,1.06-0.02,1.94-0.05,2.66C353.15,447.48,353.1,448.06,353.03,448.51z"/>
	<path fill="#F38920" d="M421.77,433.48c-0.29,0.03-0.63,0.06-1.01,0.07c-0.38,0.02-0.99,0.09-1.8,0.22s-1.51,0.4-2.09,0.82
		c-0.58,0.42-1.09,1.15-1.54,2.21l-1.44,3.7l-9.66,27.41h-4.95l-9.8-27.5l-1.49-3.74c-0.48-1.02-0.95-1.75-1.39-2.18
		c-0.45-0.43-1.09-0.7-1.92-0.79l-1.97-0.19v-0.77h22.22v0.77l-2.11,0.19c-0.7,0.13-1.27,0.27-1.7,0.43
		c-0.43,0.16-0.65,0.66-0.65,1.49c0,0.58,0.23,1.57,0.7,2.98c0.46,1.41,1.16,3.37,2.09,5.88c0.93,2.51,2.32,6.22,4.18,11.11
		c1.12-3.01,2.26-6.12,3.41-9.34c1.15-3.22,1.94-5.54,2.35-6.96c0.42-1.42,0.62-2.49,0.62-3.19c0-0.8-0.19-1.36-0.58-1.68
		c-0.38-0.32-0.83-0.54-1.34-0.65c-0.51-0.11-1.02-0.18-1.51-0.19c-0.5-0.02-0.95-0.04-1.37-0.07v-0.77h12.77V433.48z"/>
	<path fill="#F38920" d="M435.45,467.71h-15.6v-0.77l1.15-0.05c0.93-0.1,1.49-0.32,1.68-0.67c0.19-0.35,0.29-1.12,0.29-2.3
		l0.05-2.21v-11.47l-0.05-1.97c-0.06-0.77-0.16-1.34-0.29-1.73s-0.7-0.62-1.73-0.72l-1.3-0.1v-0.77h12.62v16.75l0.05,2.21
		c0,1.15,0.1,1.91,0.29,2.28c0.19,0.37,0.75,0.6,1.68,0.7l1.15,0.05V467.71z M422.87,436.94c0-1.25,0.46-2.31,1.38-3.19
		c0.92-0.88,2.02-1.32,3.3-1.32c1.32,0,2.44,0.42,3.35,1.27c0.92,0.85,1.38,1.93,1.38,3.24c0,1.28-0.46,2.36-1.38,3.24
		c-0.92,0.88-2.03,1.32-3.35,1.32c-1.29,0-2.39-0.44-3.3-1.32C423.33,439.3,422.87,438.22,422.87,436.94z"/>
	<path fill="#F38920" d="M460.84,460.51c-0.9,2.4-2.34,4.28-4.33,5.64c-1.99,1.36-4.33,2.04-7.02,2.04c-3.78,0-6.89-1.05-9.33-3.14
		c-2.44-2.1-3.66-5-3.66-8.71c0-3.46,1.26-6.3,3.78-8.52c2.52-2.22,5.54-3.34,9.07-3.34c3.69,0,6.51,1.04,8.46,3.12
		c1.96,2.08,2.93,4.62,2.93,7.63h-14.74c0,1.15,0.09,2.33,0.26,3.53s0.51,2.36,1,3.48c0.49,1.12,1.19,2.02,2.1,2.71
		c0.91,0.69,2.04,1.03,3.41,1.03c1.96,0,3.52-0.55,4.66-1.66c1.14-1.1,2.02-2.49,2.63-4.15L460.84,460.51z M452.34,454.27
		c-0.03-0.35-0.06-0.77-0.07-1.25c-0.02-0.48-0.02-1.09-0.02-1.82c0-1.95-0.24-3.43-0.71-4.44s-1.3-1.51-2.48-1.51
		c-1.02,0-1.72,0.49-2.12,1.46c-0.4,0.98-0.67,2.47-0.83,4.49l-0.1,3.07H452.34z"/>
	<path fill="#F38920" d="M480.71,451l-1.01-2.78c-0.26-0.64-0.5-1.18-0.72-1.61c-0.22-0.43-0.58-0.7-1.06-0.79l-1.06-0.1v-0.77
		h14.69v0.77h-0.72c-0.26,0-0.61,0.05-1.06,0.14s-0.67,0.48-0.67,1.15c0,0.22,0.02,0.45,0.05,0.67s0.2,0.82,0.5,1.8
		c0.3,0.98,0.79,2.42,1.46,4.34s1.22,3.44,1.63,4.56l3.31-8.64c0.42-1.25,0.62-2.14,0.62-2.69c0-0.48-0.11-0.78-0.34-0.91
		s-0.53-0.22-0.91-0.29c-0.38-0.06-0.71-0.1-0.98-0.12c-0.27-0.02-0.54-0.02-0.79-0.02v-0.77h8.06v0.77l-1.75,0.19
		c-0.97,0.16-1.88,1.26-2.72,3.31l-7.1,18.67h-3.46l-5.57-15.74l-6.19,15.74h-3.41c-0.48-1.38-0.98-2.78-1.49-4.22
		c-0.51-1.44-1.43-4.04-2.76-7.8c-1.33-3.76-2.21-6.2-2.64-7.32c-0.43-1.12-0.74-1.82-0.94-2.11s-0.48-0.47-0.86-0.55
		c-0.38-0.08-0.76-0.13-1.13-0.14c-0.37-0.02-0.71-0.02-1.03-0.02v-0.77h15.12v0.77h-0.34c-0.13,0-0.41,0.05-0.84,0.14
		s-0.65,0.48-0.65,1.15c0,0.22,0.02,0.45,0.05,0.67c0.03,0.22,0.17,0.73,0.43,1.51c0.26,0.78,0.69,2.07,1.3,3.86
		c0.61,1.79,1.25,3.6,1.92,5.42L480.71,451z"/>
	<path fill="#F38920" d="M501.64,446.3c1.54,0,2.94-0.54,4.22-1.62c1.28-1.08,1.92-2.31,1.92-3.71c0-0.32-0.04-0.56-0.12-0.72
		s-0.2-0.24-0.36-0.24c-0.26,0-0.59,0.1-1.01,0.31s-0.82,0.31-1.2,0.31c-1.12,0-2.07-0.36-2.86-1.08c-0.78-0.72-1.18-1.64-1.18-2.76
		c0-1.25,0.4-2.29,1.2-3.12c0.8-0.83,1.84-1.25,3.12-1.25c1.57,0,2.86,0.58,3.86,1.75c1.01,1.17,1.51,2.57,1.51,4.2
		c0,2.37-0.88,4.4-2.64,6.1c-1.76,1.7-3.89,2.54-6.38,2.54L501.64,446.3z"/>
	<path fill="#F38920" d="M513.4,457.77h0.62c0.83,2.59,1.66,4.5,2.5,5.71c0.83,1.22,1.74,2.13,2.71,2.74
		c0.98,0.61,2.17,0.91,3.58,0.91c0.8,0,1.49-0.22,2.06-0.65c0.58-0.43,0.86-1.03,0.86-1.8c0-0.99-0.22-1.73-0.67-2.21
		c-0.45-0.48-1.15-1-2.11-1.56c-0.96-0.56-2.07-1.18-3.34-1.87c-1.26-0.69-2.32-1.36-3.17-2.02c-0.85-0.66-1.5-1.4-1.97-2.23
		c-0.46-0.83-0.7-1.79-0.7-2.88c0-2.37,0.9-4.2,2.69-5.5s3.98-1.94,6.58-1.94c1.22,0,2.37,0.22,3.46,0.67
		c1.06,0.54,2.13,1.07,3.22,1.58c0.45,0,0.83-0.27,1.15-0.82c0.32-0.54,0.48-1.18,0.48-1.92h0.67v9.65h-0.62
		c-0.26-0.77-0.58-1.62-0.96-2.54c-0.38-0.93-0.94-1.86-1.66-2.81c-0.72-0.94-1.48-1.67-2.28-2.18s-1.82-0.77-3.07-0.77
		c-0.9,0-1.62,0.22-2.18,0.65c-0.56,0.43-0.84,0.97-0.84,1.61c0,0.74,0.2,1.31,0.6,1.73s0.98,0.86,1.75,1.32
		c0.77,0.46,1.82,1.06,3.14,1.78c1.33,0.72,2.52,1.43,3.58,2.14c1.06,0.71,1.94,1.58,2.64,2.62c0.7,1.04,1.06,2.23,1.06,3.58
		c0,2.46-0.94,4.32-2.81,5.57s-4.14,1.87-6.79,1.87c-1.38,0-2.72-0.29-4.03-0.86c-1.28-0.64-2.54-1.3-3.79-1.97
		c-0.42,0-0.78,0.34-1.1,1.01c-0.32,0.67-0.51,1.39-0.58,2.16h-0.67V457.77z"/>
</g>
<g>
	<path fill="#F38920" d="M221.14,511.54c0,3.17-1.34,5.77-4.01,7.8c-2.68,2.03-5.59,3.05-8.73,3.05c-2.76,0-5.48-0.87-8.17-2.62
		s-4.25-2.62-4.66-2.62c-1.06,0-1.71,0.4-1.97,1.2c-0.26,0.8-0.5,2.14-0.72,4.03h-0.82v-17.18h0.82c0.19,0.67,0.52,1.78,0.98,3.31
		s1.33,3.37,2.59,5.5c1.26,2.13,2.93,3.9,4.99,5.3c2.06,1.41,4.46,2.11,7.18,2.11c1.57,0,2.85-0.42,3.84-1.25
		c0.99-0.83,1.49-1.82,1.49-2.98c0-1.38-0.37-2.46-1.1-3.26c-0.74-0.8-2.06-1.58-3.98-2.33c-1.92-0.75-3.95-1.56-6.1-2.42
		c-2.14-0.86-4.42-2.03-6.82-3.5c-2.4-1.44-3.6-4.16-3.6-8.16c0-3.14,1.26-5.79,3.79-7.97c2.53-2.18,5.44-3.26,8.74-3.26
		c1.82,0,3.6,0.43,5.33,1.3l4.99,2.78c0.93,0,1.54-0.39,1.82-1.18c0.29-0.78,0.43-1.75,0.43-2.9h0.91v12.72h-0.86
		c-0.16-0.54-0.49-1.47-0.98-2.78c-0.5-1.31-1.45-2.78-2.87-4.42c-1.42-1.63-2.82-2.81-4.21-3.53c-1.39-0.72-3.06-1.08-5-1.08
		c-1.31,0-2.52,0.38-3.64,1.15c-1.12,0.77-1.68,1.73-1.68,2.88c0,1.22,0.42,2.23,1.27,3.05c0.85,0.82,1.82,1.46,2.93,1.94
		s2.63,1.09,4.58,1.82c1.95,0.74,3.98,1.59,6.07,2.57c2.1,0.98,3.82,2.4,5.16,4.27C220.47,506.77,221.14,508.98,221.14,511.54z"/>
	<path fill="#F38920" d="M248.02,514.62c-0.9,2.4-2.34,4.28-4.33,5.64c-1.99,1.36-4.33,2.04-7.02,2.04c-3.78,0-6.89-1.05-9.33-3.14
		c-2.44-2.1-3.65-5-3.65-8.71c0-3.46,1.26-6.3,3.78-8.52c2.52-2.22,5.54-3.34,9.07-3.34c3.69,0,6.51,1.04,8.46,3.12
		c1.96,2.08,2.93,4.62,2.93,7.63h-14.74c0,1.15,0.09,2.33,0.26,3.53s0.51,2.36,1,3.48c0.49,1.12,1.19,2.02,2.1,2.71
		c0.91,0.69,2.04,1.03,3.41,1.03c1.96,0,3.52-0.55,4.66-1.66c1.14-1.1,2.02-2.49,2.63-4.15L248.02,514.62z M239.53,508.38
		c-0.03-0.35-0.06-0.77-0.07-1.25c-0.02-0.48-0.02-1.09-0.02-1.82c0-1.95-0.24-3.43-0.71-4.44c-0.48-1.01-1.3-1.51-2.48-1.51
		c-1.02,0-1.72,0.49-2.12,1.46c-0.4,0.98-0.68,2.47-0.83,4.49l-0.1,3.07H239.53z"/>
	<path fill="#F38920" d="M273.88,519.46c0.76,0,1.29-0.47,1.59-1.42c0.3-0.95,0.45-2.08,0.45-3.4h0.67c0,2.82-0.5,4.69-1.51,5.58
		c-1.01,0.9-1.91,1.47-2.71,1.71c-0.8,0.24-1.82,0.36-3.07,0.36c-1.38,0-2.6-0.35-3.67-1.06c-1.07-0.71-1.72-1.65-1.94-2.84
		c-0.51,1.3-1.37,2.27-2.57,2.92c-1.2,0.65-2.76,0.97-4.68,0.97c-2.05,0-3.71-0.56-4.99-1.68c-1.28-1.12-1.92-2.68-1.92-4.67
		c0-1.6,0.4-2.89,1.2-3.87c0.8-0.98,1.62-1.58,2.45-1.8c0.83-0.22,2.11-0.42,3.84-0.58c1.73-0.16,3-0.34,3.82-0.55
		c0.82-0.21,1.4-0.43,1.75-0.67c0.35-0.24,0.53-0.65,0.53-1.23l-0.05-4.38c0-1.25-0.16-2.15-0.48-2.69c-0.32-0.55-0.98-0.82-2-0.82
		c-0.63,0-1.16,0.14-1.59,0.43c-0.43,0.29-0.64,0.66-0.64,1.11c0,0.35,0.34,0.8,1.02,1.33c0.68,0.53,1.02,1.33,1.02,2.39
		c0,1-0.44,1.88-1.32,2.65c-0.88,0.77-2.32,1.16-4.31,1.16c-1.09,0-2.05-0.3-2.86-0.89c-0.82-0.59-1.23-1.39-1.23-2.39
		c0-1.99,1.11-3.58,3.34-4.77c2.23-1.19,4.88-1.79,7.96-1.79c2.6,0,4.99,0.54,7.17,1.62s3.27,2.74,3.27,4.99v11.04
		c0,1.03,0.09,1.82,0.28,2.36C272.85,519.18,273.24,519.46,273.88,519.46z M263.1,518.02v-9.17l-0.14-0.05
		c-0.28,0.38-0.81,0.74-1.59,1.08c-0.78,0.34-1.31,0.67-1.61,0.98c-0.3,0.32-0.54,0.94-0.71,1.85c-0.17,0.91-0.26,1.85-0.26,2.81
		c0,1.44,0.11,2.59,0.33,3.46c0.22,0.86,0.73,1.3,1.52,1.3c0.6,0,1.13-0.24,1.59-0.72C262.68,519.08,262.97,518.57,263.1,518.02z"/>
	<path fill="#F38920" d="M321.27,521.82H306.8v-0.77c1.11,0,1.77-0.18,1.98-0.53c0.21-0.35,0.31-1.18,0.31-2.5l0.05-2.21v-9.7
		l-0.05-1.97c0-1.38-0.17-2.37-0.5-2.98s-0.93-0.91-1.78-0.91c-0.57,0-1.18,0.26-1.83,0.79c-0.65,0.53-1.09,1.56-1.31,3.1v11.66
		l0.05,2.21c0,1.02,0.06,1.76,0.17,2.21s0.72,0.72,1.83,0.82v0.77h-13.64v-0.77c1.08,0,1.73-0.18,1.95-0.53
		c0.22-0.35,0.33-1.18,0.33-2.5l0.05-2.21v-9.7l-0.05-1.97c0-1.38-0.17-2.37-0.5-2.98s-0.93-0.91-1.78-0.91
		c-1.08,0-1.82,0.35-2.21,1.06c-0.4,0.7-0.71,1.42-0.93,2.16v12.34l0.05,2.21c0,1.02,0.06,1.76,0.17,2.21
		c0.11,0.45,0.72,0.72,1.83,0.82v0.77h-14.38v-0.77l1.06-0.05c0.93-0.1,1.49-0.32,1.68-0.67c0.19-0.35,0.29-1.12,0.29-2.3l0.05-2.21
		v-11.47l-0.05-1.97c-0.06-0.77-0.16-1.34-0.29-1.73c-0.13-0.38-0.7-0.62-1.73-0.72l-1.1-0.1v-0.77h12.24v3.6
		c0.29-0.9,0.86-1.8,1.7-2.71c0.85-0.91,2.57-1.37,5.16-1.37c1.79,0,3.35,0.38,4.68,1.13c1.33,0.75,2.31,1.88,2.95,3.38
		c0.16-0.58,0.58-1.47,1.27-2.69c0.69-1.22,2.63-1.82,5.83-1.82c2.18,0,4.06,0.61,5.66,1.82c1.6,1.22,2.4,2.78,2.4,4.7v10.7
		l0.05,2.21c0,1.22,0.09,1.98,0.26,2.3c0.18,0.32,0.74,0.54,1.7,0.67l0.86,0.05V521.82z"/>
	<path fill="#F38920" d="M337.4,521.82h-15.62v-0.77l1.16-0.05c0.93-0.1,1.5-0.32,1.69-0.67c0.19-0.35,0.29-1.12,0.29-2.3l0.05-2.21
		V492.1l-0.05-1.97c-0.06-0.77-0.16-1.34-0.29-1.73c-0.13-0.38-0.7-0.62-1.73-0.72l-1.63-0.1v-0.77h12.96v28.99l0.05,2.21
		c0,1.15,0.1,1.91,0.29,2.28c0.19,0.37,0.75,0.6,1.68,0.7l1.15,0.05V521.82z"/>
	<path fill="#F38920" d="M362.65,514.62c-0.9,2.4-2.34,4.28-4.33,5.64c-1.99,1.36-4.33,2.04-7.02,2.04c-3.78,0-6.89-1.05-9.33-3.14
		c-2.44-2.1-3.65-5-3.65-8.71c0-3.46,1.26-6.3,3.78-8.52c2.52-2.22,5.54-3.34,9.07-3.34c3.69,0,6.51,1.04,8.46,3.12
		c1.96,2.08,2.93,4.62,2.93,7.63h-14.74c0,1.15,0.09,2.33,0.26,3.53s0.51,2.36,1,3.48c0.49,1.12,1.19,2.02,2.1,2.71
		c0.91,0.69,2.04,1.03,3.41,1.03c1.96,0,3.52-0.55,4.66-1.66c1.14-1.1,2.02-2.49,2.63-4.15L362.65,514.62z M354.15,508.38
		c-0.03-0.35-0.06-0.77-0.07-1.25c-0.02-0.48-0.02-1.09-0.02-1.82c0-1.95-0.24-3.43-0.71-4.44c-0.48-1.01-1.3-1.51-2.48-1.51
		c-1.02,0-1.72,0.49-2.12,1.46c-0.4,0.98-0.68,2.47-0.83,4.49l-0.1,3.07H354.15z"/>
	<path fill="#F38920" d="M365.14,511.88h0.62c0.83,2.59,1.66,4.5,2.5,5.71c0.83,1.22,1.74,2.13,2.71,2.74
		c0.98,0.61,2.17,0.91,3.58,0.91c0.8,0,1.49-0.22,2.06-0.65c0.58-0.43,0.86-1.03,0.86-1.8c0-0.99-0.22-1.73-0.67-2.21
		c-0.45-0.48-1.15-1-2.11-1.56c-0.96-0.56-2.07-1.18-3.34-1.87c-1.26-0.69-2.32-1.36-3.17-2.02c-0.85-0.66-1.5-1.4-1.97-2.23
		c-0.46-0.83-0.7-1.79-0.7-2.88c0-2.37,0.9-4.2,2.69-5.5s3.98-1.94,6.58-1.94c1.22,0,2.37,0.22,3.46,0.67
		c1.06,0.54,2.13,1.07,3.22,1.58c0.45,0,0.83-0.27,1.15-0.82c0.32-0.54,0.48-1.18,0.48-1.92h0.67v9.65h-0.62
		c-0.26-0.77-0.58-1.62-0.96-2.54c-0.38-0.93-0.94-1.86-1.66-2.81c-0.72-0.94-1.48-1.67-2.28-2.18s-1.82-0.77-3.07-0.77
		c-0.9,0-1.62,0.22-2.18,0.65c-0.56,0.43-0.84,0.97-0.84,1.61c0,0.74,0.2,1.31,0.6,1.73s0.98,0.86,1.75,1.32
		c0.77,0.46,1.82,1.06,3.14,1.78c1.33,0.72,2.52,1.43,3.58,2.14c1.06,0.71,1.94,1.58,2.64,2.62c0.7,1.04,1.06,2.23,1.06,3.58
		c0,2.46-0.94,4.32-2.81,5.57s-4.14,1.87-6.79,1.87c-1.38,0-2.72-0.29-4.03-0.86c-1.28-0.64-2.54-1.3-3.79-1.97
		c-0.42,0-0.78,0.34-1.1,1.01c-0.32,0.67-0.51,1.39-0.58,2.16h-0.67V511.88z"/>
	<path fill="#F38920" d="M388.38,511.88H389c0.83,2.59,1.66,4.5,2.5,5.71c0.83,1.22,1.74,2.13,2.71,2.74
		c0.98,0.61,2.17,0.91,3.58,0.91c0.8,0,1.49-0.22,2.06-0.65c0.58-0.43,0.86-1.03,0.86-1.8c0-0.99-0.22-1.73-0.67-2.21
		c-0.45-0.48-1.15-1-2.11-1.56c-0.96-0.56-2.07-1.18-3.34-1.87c-1.26-0.69-2.32-1.36-3.17-2.02c-0.85-0.66-1.5-1.4-1.97-2.23
		c-0.46-0.83-0.7-1.79-0.7-2.88c0-2.37,0.9-4.2,2.69-5.5s3.98-1.94,6.58-1.94c1.22,0,2.37,0.22,3.46,0.67
		c1.06,0.54,2.13,1.07,3.22,1.58c0.45,0,0.83-0.27,1.15-0.82c0.32-0.54,0.48-1.18,0.48-1.92H407v9.65h-0.62
		c-0.26-0.77-0.58-1.62-0.96-2.54c-0.38-0.93-0.94-1.86-1.66-2.81c-0.72-0.94-1.48-1.67-2.28-2.18s-1.82-0.77-3.07-0.77
		c-0.9,0-1.62,0.22-2.18,0.65c-0.56,0.43-0.84,0.97-0.84,1.61c0,0.74,0.2,1.31,0.6,1.73s0.98,0.86,1.75,1.32
		c0.77,0.46,1.82,1.06,3.14,1.78c1.33,0.72,2.52,1.43,3.58,2.14c1.06,0.71,1.94,1.58,2.64,2.62c0.7,1.04,1.06,2.23,1.06,3.58
		c0,2.46-0.94,4.32-2.81,5.57s-4.14,1.87-6.79,1.87c-1.38,0-2.72-0.29-4.03-0.86c-1.28-0.64-2.54-1.3-3.79-1.97
		c-0.42,0-0.78,0.34-1.1,1.01c-0.32,0.67-0.51,1.39-0.58,2.16h-0.67V511.88z"/>
	<path fill="#F38920" d="M437.19,503.62c0,5.06,0.5,9.26,1.49,12.6s2.72,5.02,5.18,5.02c1.22,0,2.14-0.24,2.78-0.72
		c0.64-0.48,1.04-1.02,1.2-1.61c0.16-0.59,0.26-1.29,0.29-2.09c0.03-0.8,0.05-1.79,0.05-2.98v-1.87c0-1.38-0.05-2.3-0.14-2.78
		c-0.1-1.06-0.31-1.78-0.65-2.16c-0.34-0.38-0.86-0.62-1.56-0.72c-0.7-0.1-1.34-0.15-1.92-0.17c-0.58-0.02-1.1-0.04-1.58-0.07v-0.77
		h22.46v0.77l-2.21,0.14c-0.99,0.1-1.66,0.33-1.99,0.7c-0.34,0.37-0.55,1.1-0.65,2.18l-0.1,2.26v6.29l0.1,4.32h-0.72
		c-0.42-0.93-1.14-1.78-2.18-2.54c-1.04-0.77-2.18-1.15-3.43-1.15c-1.12,0-2.72,0.69-4.8,2.06c-2.08,1.38-4.83,2.06-8.26,2.06
		c-4.74,0-8.72-1.71-11.95-5.14s-4.85-7.73-4.85-12.91c0-5.44,1.78-9.81,5.33-13.1c3.55-3.29,8.08-4.94,13.58-4.94
		c3.01,0,5.86,0.67,8.54,2.02c2.69,1.34,4.19,2.05,4.51,2.11c0.93,0,1.55-0.34,1.87-1.03c0.32-0.69,0.62-1.67,0.91-2.95h0.96v15.5
		h-0.82c-0.96-3.97-2.55-7.33-4.78-10.08c-2.22-2.75-5.06-4.13-8.52-4.13c-2.75,0-4.8,1.59-6.14,4.78
		C437.86,495.7,437.19,499.4,437.19,503.62z"/>
	<path fill="#F38920" d="M496.47,521.82h-12.62v-3.07c-0.74,1.15-1.64,2.03-2.71,2.64s-2.55,0.91-4.44,0.91
		c-2.21,0-4.16-0.66-5.86-1.97c-1.73-1.28-2.59-3.06-2.59-5.33v-10.66l-0.05-1.97c0-0.86-0.14-1.46-0.41-1.8
		c-0.27-0.34-0.86-0.55-1.75-0.65l-1.34-0.1v-0.77h12.82v15.7l0.05,1.97c0,1.31,0.23,2.3,0.69,2.95c0.46,0.66,1.15,0.98,2.07,0.98
		c1.02,0,1.75-0.29,2.21-0.86c0.46-0.58,0.83-1.17,1.12-1.78v-12.96l-0.1-2.21c0-1.06-0.17-1.78-0.52-2.16
		c-0.35-0.38-1.04-0.64-2.09-0.77l-1.47-0.1v-0.77h13.44v17.47l0.05,1.97c0,0.86,0.14,1.46,0.41,1.8c0.27,0.34,0.86,0.55,1.75,0.65
		l1.34,0.1V521.82z"/>
	<path fill="#F38920" d="M499.59,500.89h-3.26v-1.3c1.09-0.29,2.22-0.82,3.41-1.61s2.32-1.7,3.4-2.74c1.08-1.04,1.98-2.06,2.7-3.05
		c0.72-0.99,1.28-1.89,1.67-2.69h1.35v9.55h6.25l-0.67,1.82h-5.58v13.06l0.1,2.45c0,1.38,0.3,2.42,0.91,3.12s1.37,1.06,2.29,1.06
		c1.24,0,2.15-0.52,2.72-1.56c0.57-1.04,0.86-2.2,0.86-3.48h0.67c0,1.79-0.52,3.37-1.58,4.73c-1.05,1.36-3.31,2.04-6.78,2.04
		c-2.22,0-4.18-0.58-5.89-1.73c-1.71-1.15-2.56-2.77-2.56-4.85V500.89z"/>
	<path fill="#F38920" d="M518.93,500.89h-3.26v-1.3c1.09-0.29,2.22-0.82,3.41-1.61s2.32-1.7,3.4-2.74c1.08-1.04,1.98-2.06,2.7-3.05
		c0.72-0.99,1.28-1.89,1.67-2.69h1.35v9.55h6.25l-0.67,1.82h-5.58v13.06l0.1,2.45c0,1.38,0.3,2.42,0.91,3.12s1.37,1.06,2.29,1.06
		c1.24,0,2.15-0.52,2.72-1.56c0.57-1.04,0.86-2.2,0.86-3.48h0.67c0,1.79-0.52,3.37-1.58,4.73c-1.05,1.36-3.31,2.04-6.78,2.04
		c-2.22,0-4.18-0.58-5.89-1.73c-1.71-1.15-2.56-2.77-2.56-4.85V500.89z"/>
	<path fill="#F38920" d="M560.17,514.62c-0.9,2.4-2.34,4.28-4.33,5.64c-1.99,1.36-4.33,2.04-7.02,2.04c-3.78,0-6.89-1.05-9.33-3.14
		c-2.44-2.1-3.66-5-3.66-8.71c0-3.46,1.26-6.3,3.78-8.52c2.52-2.22,5.54-3.34,9.07-3.34c3.69,0,6.51,1.04,8.46,3.12
		c1.96,2.08,2.93,4.62,2.93,7.63h-14.74c0,1.15,0.09,2.33,0.26,3.53s0.51,2.36,1,3.48c0.49,1.12,1.19,2.02,2.1,2.71
		c0.91,0.69,2.04,1.03,3.41,1.03c1.96,0,3.52-0.55,4.66-1.66c1.14-1.1,2.02-2.49,2.63-4.15L560.17,514.62z M551.67,508.38
		c-0.03-0.35-0.06-0.77-0.07-1.25c-0.02-0.48-0.02-1.09-0.02-1.82c0-1.95-0.24-3.43-0.71-4.44s-1.3-1.51-2.48-1.51
		c-1.02,0-1.72,0.49-2.12,1.46c-0.4,0.98-0.67,2.47-0.83,4.49l-0.1,3.07H551.67z"/>
	<path fill="#F38920" d="M560.84,521.82v-0.77l1.3-0.05c0.93-0.1,1.49-0.32,1.68-0.67c0.19-0.35,0.29-1.12,0.29-2.3l0.05-2.21
		v-11.47l-0.05-1.97c-0.06-0.77-0.16-1.34-0.29-1.73s-0.7-0.62-1.73-0.72l-1.25-0.1v-0.77h12.48v4.03c0.22-0.58,0.69-1.44,1.41-2.59
		c0.72-1.15,2.4-1.73,5.02-1.73c1.54,0,2.84,0.54,3.91,1.61c1.07,1.07,1.61,2.34,1.61,3.82c0,1.47-0.5,2.7-1.51,3.67
		c-1.01,0.98-2.25,1.46-3.72,1.46c-1.22,0-2.26-0.42-3.14-1.27c-0.88-0.85-1.32-1.82-1.32-2.9c0-0.8,0.14-1.54,0.43-2.21
		c0.32-0.61,0.64-1.23,0.96-1.87c-0.16-0.22-0.32-0.34-0.48-0.34c-0.83,0-1.54,0.5-2.16,1.49c-0.61,0.99-0.92,1.92-0.92,2.78v11.09
		l0.05,2.4c0,0.9,0.11,1.5,0.33,1.82c0.22,0.32,0.77,0.53,1.66,0.62l1.42,0.1v0.77H560.84z"/>
	<path fill="#F38920" d="M587.24,511.88h0.62c0.83,2.59,1.66,4.5,2.5,5.71c0.83,1.22,1.74,2.13,2.71,2.74
		c0.98,0.61,2.17,0.91,3.58,0.91c0.8,0,1.49-0.22,2.06-0.65c0.58-0.43,0.86-1.03,0.86-1.8c0-0.99-0.22-1.73-0.67-2.21
		c-0.45-0.48-1.15-1-2.11-1.56c-0.96-0.56-2.07-1.18-3.34-1.87c-1.26-0.69-2.32-1.36-3.17-2.02c-0.85-0.66-1.5-1.4-1.97-2.23
		c-0.46-0.83-0.7-1.79-0.7-2.88c0-2.37,0.9-4.2,2.69-5.5s3.98-1.94,6.58-1.94c1.22,0,2.37,0.22,3.46,0.67
		c1.06,0.54,2.13,1.07,3.22,1.58c0.45,0,0.83-0.27,1.15-0.82c0.32-0.54,0.48-1.18,0.48-1.92h0.67v9.65h-0.62
		c-0.26-0.77-0.58-1.62-0.96-2.54c-0.38-0.93-0.94-1.86-1.66-2.81c-0.72-0.94-1.48-1.67-2.28-2.18s-1.82-0.77-3.07-0.77
		c-0.9,0-1.62,0.22-2.18,0.65c-0.56,0.43-0.84,0.97-0.84,1.61c0,0.74,0.2,1.31,0.6,1.73s0.98,0.86,1.75,1.32
		c0.77,0.46,1.82,1.06,3.14,1.78c1.33,0.72,2.52,1.43,3.58,2.14c1.06,0.71,1.94,1.58,2.64,2.62c0.7,1.04,1.06,2.23,1.06,3.58
		c0,2.46-0.94,4.32-2.81,5.57s-4.14,1.87-6.79,1.87c-1.38,0-2.72-0.29-4.03-0.86c-1.28-0.64-2.54-1.3-3.79-1.97
		c-0.42,0-0.78,0.34-1.1,1.01c-0.32,0.67-0.51,1.39-0.58,2.16h-0.67V511.88z"/>
</g>
<g>
</g>
<g>
</g>
<g>
</g>
<g>
</g>
<g>
</g>
<g>
</g>
<g>
</g>
<g>
</g>
<g>
</g>
<g>
</g>
<g>
</g>
<g>
</g>
<g>
</g>
<g>
</g>
<g>
</g>
</svg>
