<?xml version="1.0" encoding="utf-8"?>
<!-- Generator: Adobe Illustrator 25.0.0, SVG Export Plug-In . SVG Version: 6.00 Build 0)  -->
<svg version="1.2" baseProfile="tiny" id="logo_1" xmlns="http://www.w3.org/2000/svg" xmlns:xlink="http://www.w3.org/1999/xlink"
	 x="0px" y="0px" viewBox="0 0 800 800" overflow="visible" xml:space="preserve">
<rect x="323" y="254" fill="#F9F9F8" width="38" height="125"/>
<rect x="407" y="254" fill="#F9F9F8" width="38" height="125"/>
<rect x="338" y="268" fill="#001A38" width="8" height="96"/>
<rect x="422" y="268" fill="#001A38" width="8" height="96"/>
<polygon fill="#001A38" points="337.96,343.42 337.96,331.42 385,306.5 430,330.58 430,342.58 385,318.74 "/>
<polygon fill="#F9F9F8" points="323,321 323,309 385,276 445,308 445,320 385,288 "/>
<polygon fill="#001A38" points="323,333 323,321 385,288 445,320 445,332 385,301 "/>
<polygon fill="#F9F9F8" points="323,344 323,332 385,299 445,331 445,343 385,311.24 "/>
<rect x="372" y="329.04" fill="#F38920" width="9.92" height="9.92"/>
<rect x="386.96" y="329.04" fill="#F38920" width="9.92" height="9.92"/>
<rect x="372" y="343.04" fill="#F38920" width="9.92" height="9.92"/>
<rect x="386.96" y="343.04" fill="#F38920" width="9.92" height="9.92"/>
<path fill="#F38920" d="M214.67,423.67c0,0,53.25-31.67,172.29-31.67S563,428.67,563,428.67S415.67,388,214.67,423.67z"/>
</svg>
